<?xml version="1.0" encoding="utf-8"?>
<!-- Generator: Adobe Illustrator 25.0.0, SVG Export Plug-In . SVG Version: 6.00 Build 0)  -->
<svg version="1.1" id="Layer_1" xmlns="http://www.w3.org/2000/svg" xmlns:xlink="http://www.w3.org/1999/xlink" x="0px" y="0px"
	 viewBox="0 0 500 500" style="enable-background:new 0 0 500 500;" xml:space="preserve">
<style type="text/css">
	.st0{fill:#FDFDFD;}
	.st1{fill:#322F2F;}
	.st2{fill:#58C1ED;}
	.st3{fill:#EAEAE9;}
	.st4{fill:#2DA9E0;}
	.st5{fill:#F9F9FA;}
	.st6{fill:#D52027;}
	.st7{font-family:'MyriadPro-Regular';}
	.st8{font-size:43.7964px;}
</style>
<g>
	<g>
		<path class="st0" d="M579.63,458.98c-199.03,0-398.07,0-597.11,0c0-149.75,0.01-299.49-0.09-449.24c0-3.38,0.65-4.06,4.05-4.06
			c196.39,0.11,392.79,0.11,589.18,0c3.38,0,4.06,0.65,4.06,4.05C579.61,159.49,579.63,309.24,579.63,458.98z M138.85,387.83
			c0.34,0.37,0.68,0.74,1.02,1.11c0.29,0.29,0.58,0.58,0.87,0.87c0.14,2.16,1.43,3.65,3.01,4.89c8.67,6.79,16.43,14.65,25.02,21.56
			c2.66,2.14,5.78,2.73,8.42,4.68c8.92,6.63,19.06,11.45,29.37,15.07c14.19,4.98,28.97,8.22,44.02,10.26
			c11.11,1.51,21.84-0.12,32.72-1.16c6.13-0.59,11.75-3.21,17.82-4.31c6.81-1.24,14.09-2.16,20.24-5.63
			c8.01-4.51,16.63-7.86,24.32-12.97c4.77-3.17,10.08-5.58,14.6-9.04c5.48-4.2,10.21-9.36,15.6-13.7
			c5.53-4.45,10.82-8.97,13.79-15.62c7.39-0.53,14.76-0.64,22.16,0.25c18.84,2.28,37.79,1.84,56.71,1.55
			c6.48-0.1,12.94-1.15,19.41-1.75c4.19-0.39,5.56-2.28,4.13-6.07c-1.93-5.14-2.65-10.64-2.61-15.91
			c0.09-11.7-1.65-23.23-3.95-34.49c-2.79-13.7-2.34-27.71-5.36-41.28c-2-8.98-1.93-18.18-3.13-27.25
			c-0.84-6.29-2.26-12.44-3.2-18.69c-1.14-7.57,0.34-15.33-1.62-22.92c-1.05-4.06-2.76-6.93-7.17-7.46
			c-6.2-0.75-12.31-1.81-18.13-4.22c-1.57-0.65-4.18,0.21-4.52-2.07c-0.34-2.29,1.73-3.89,3.45-5.06c2.57-1.75,5.82-2.69,7.52-5.44
			c3.6-5.83,9.24-9.54,14.23-13.87c5.69-4.92,6.05-5.39,2.42-12.1c-0.23-0.43-0.5-0.86-0.66-1.32
			c-4.02-10.93-10.91-20.42-15.65-30.99c-1.04-2.31-2.16-2.42-4.57-1.76c-12.13,3.3-22.86,10.26-35.12,13.2
			c-1.29,0.31-2.86,2.68-3.69,1.14c-1.14-2.12-4.12-3.94-2.76-6.91c2.72-5.94,5.31-11.98,8.63-17.58
			c4.12-6.94,7.75-14.09,11.05-21.43c0.38-0.84,0.2-1.64-0.43-2.26c-2.9-2.83-5.81-5.64-8.74-8.44
			c-5.96-5.69-13.02-10.17-18.09-16.85c-3.28-4.32-7.62-4.59-10.89-0.04c-2.48,3.46-5.68,5.82-8.82,8.38c-2,1.64-3.86,3.3-5.59,5.31
			c-7.33,8.55-9.87,8.85-16.16,3.23c-1.28-1.14-1.64-2.2-1.74-3.76c-0.32-4.97,0.79-9.77,1.71-14.57c1.26-6.56,3.13-13.01,2.9-19.81
			c-0.09-2.71-0.66-4.2-3.61-5.47c-11.06-4.75-22.76-7.98-33.3-13.96c-1.54-0.87-3.09-0.63-4.08,1.29
			c-4.01,7.79-8.22,15.48-12.11,23.33c-3.1,6.25-4.41,7-10.84,5.04c-1.24-0.38-2.56-0.72-3.83-0.68c-2.31,0.08-2.75-0.92-3.3-3.1
			c-2.5-10.02-2.49-20.39-4.47-30.47c-0.52-2.63-1.54-3.8-4.12-3.79c-12.7,0.02-25.41,0.01-38.11,0.02c-2.34,0-3.9,1.07-3.77,3.54
			c0.42,8.14-1.82,15.85-3.34,23.72c-1.74,8.96-1.49,8.74-10.48,11.53c-3.92,1.22-5.2-0.15-6.73-3.28
			c-3.93-8.04-8.15-15.95-12.35-23.85c-1.75-3.3-3.71-4.89-7.63-1.95c-3.49,2.62-7.69,4.63-12.22,4.92
			c-3.01,0.19-5.7,1.37-7.63,3.11c-2.17,1.97-4.48,2.11-6.96,2.83c-8.59,2.51-9.42,4.05-7.39,12.69c0.75,3.21,1.77,6.32,1.42,9.65
			c-0.43,4.01,0.31,7.96,1.46,11.67c1.85,5.97,2.48,10.92-4.2,14.59c-2.46,1.35-3.58,2.01-5.67-0.2
			c-7.58-8.02-17.07-14.03-24.07-22.68c-1.42-1.76-2.51-1.5-4.49-0.28c-3.92,2.42-5.65,6.84-9.3,9.28
			c-5.58,3.74-9.11,9.81-15.21,12.95c-2.8,1.44-3.46,5.1-6.33,6.69c-1.16,0.64-0.82,2.02-0.15,3.09
			c7.03,11.18,12.64,23.13,18.93,34.72c1.35,2.49,1.67,5.2-0.34,7.86c-1.32,1.74-2.29,2.14-4.43,1.25
			c-10.49-4.41-21.07-8.63-31.64-12.86c-6.31-2.52-7.84-1.28-10.89,4.81c-2.48,4.95-4.35,10.16-7.08,15.01
			c-3.28,5.81-6.05,11.91-9.11,17.85c-0.79,1.53-0.91,3.03,0.47,4c3.24,2.27,5.46,5.62,8.43,8c6.37,5.1,11.36,11.74,18.34,16.09
			c1.48,0.92,1.93,2.3,1.68,3.81c-0.3,1.9-2.16,1.53-3.45,2.11c-7.28,3.26-15.48,3-22.78,6.1c-2.12,0.2-1.93,1.71-1.81,3.18
			c0.07,3.32-0.31,6.57-1.65,9.66c-1.91,0.89-1.8,1.92-0.23,3.07c-1.06,9.24-2.66,18.4-3.21,27.72c-0.39,6.61-0.24,13.46-3.29,19.69
			c-2.55,1.57-2.05,3.3-0.26,5.09c0.46,1.43,0.16,2.69-0.82,3.81c-2.79,2.46-1.76,5.19-0.58,7.94c-0.09,1.32-0.17,2.63-0.26,3.95
			c-3,3.29-1.74,7.19-1.57,10.94c0.12,5.44-2.07,10.66-2.05,15.96c0.06,17.64-5.14,34.51-6.89,51.86c-0.28,2.74-1.15,5.85,0.31,8.21
			c1.17,1.89,4.18,0.1,5.98,0.91c3.33,1.49,6.74,1.02,10.13,1.34c20.88,1.96,41.72,0.78,62.56-0.63c7.21-0.49,14.38-1.38,21.62-0.48
			c0.47,0.94,1.07,1.74,2.15,2.04c0.36,0.34,0.72,0.68,1.08,1.02c0,0-0.04-0.03-0.04-0.03c0.34,0.34,0.67,0.69,1.01,1.03
			C138.89,387.86,138.85,387.83,138.85,387.83z"/>
		<path class="st1" d="M134.68,383.8c-7.23-0.9-14.4-0.01-21.61,0.48c-20.83,1.41-41.68,2.59-62.56,0.63
			c-3.39-0.32-6.8,0.15-10.13-1.34c-1.8-0.8-4.81,0.98-5.98-0.91c-1.46-2.36-0.59-5.47-0.31-8.21c1.75-17.35,6.95-34.22,6.89-51.86
			c-0.02-5.31,2.17-10.53,2.05-15.96c1.27-0.54,0-2.92,2.04-2.82c0.31,0.01,0.91,0.73,0.84,0.88c-2.18,4.74,0.11,9.79-0.9,14.51
			c-4.01,18.85-3.56,38.28-7.67,57.1c-0.46,2.08-0.47,3.96,2.3,4.35c2.79,0.39,2.93-1.38,3.34-3.54c1.62-8.4,1.83-16.95,3.06-25.38
			c3.68-25.39,6.64-50.87,9.95-76.3c2.46-18.9,5.73-37.75,6.8-56.82c0.08-1.51,2.69-4.13-1.15-4.36c-2.43-0.15-4.95,0.23-4.76,4.01
			c0.19,3.6-0.02,7.25-0.45,10.84c-2.03,16.96-5.66,33.68-6.8,50.8c-0.5,7.45-0.71,15.31-4.54,22.89c-1.35-2.73,0.23-4.98-0.5-7.08
			c0.09-1.32,0.17-2.63,0.26-3.95c1.46-2.55,0.77-5.26,0.58-7.94c0.98-1.12,1.28-2.39,0.82-3.81c0.78-1.66,0.5-3.37,0.26-5.09
			c3.05-6.23,2.9-13.08,3.29-19.69c0.55-9.32,2.15-18.48,3.21-27.72c0.76-0.97,0.54-2.02,0.23-3.07c1.34-3.08,1.72-6.33,1.65-9.66
			c1.13-0.76,1.88-1.74,1.81-3.18c7.3-3.1,15.5-2.83,22.78-6.1c1.29-0.58,3.15-0.21,3.45-2.11c0.24-1.52-0.21-2.89-1.68-3.81
			c-6.98-4.35-11.98-10.99-18.34-16.09c-2.97-2.38-5.19-5.74-8.43-8c-1.38-0.96-1.26-2.47-0.47-4c3.06-5.94,5.83-12.04,9.11-17.85
			c2.73-4.84,4.61-10.05,7.08-15.01c3.05-6.1,4.58-7.34,10.89-4.81c10.57,4.23,21.15,8.44,31.64,12.86c2.13,0.9,3.11,0.49,4.43-1.25
			c2.02-2.66,1.7-5.38,0.34-7.86c-6.29-11.59-11.89-23.54-18.93-34.72c-0.67-1.07-1.01-2.45,0.15-3.09
			c2.88-1.59,3.53-5.25,6.33-6.69c6.1-3.14,9.63-9.21,15.21-12.95c3.65-2.45,5.38-6.87,9.3-9.28c1.98-1.22,3.07-1.48,4.49,0.28
			c7,8.65,16.49,14.66,24.07,22.68c2.09,2.21,3.21,1.55,5.67,0.2c6.69-3.67,6.06-8.61,4.2-14.59c-1.15-3.71-1.89-7.66-1.46-11.67
			c0.35-3.33-0.66-6.44-1.42-9.65c-2.02-8.63-1.2-10.18,7.39-12.69c2.48-0.72,4.78-0.86,6.96-2.83c1.92-1.74,4.62-2.92,7.63-3.11
			c4.53-0.29,8.72-2.3,12.22-4.92c3.92-2.94,5.88-1.35,7.63,1.95c4.2,7.91,8.42,15.81,12.35,23.85c1.53,3.13,2.81,4.5,6.73,3.28
			c8.99-2.79,8.74-2.57,10.48-11.53c1.53-7.87,3.76-15.58,3.34-23.72c-0.13-2.47,1.43-3.54,3.77-3.54c12.7-0.01,25.41,0,38.11-0.02
			c2.58,0,3.61,1.16,4.12,3.79c1.98,10.09,1.97,20.45,4.47,30.47c0.55,2.19,0.99,3.18,3.3,3.1c1.27-0.04,2.59,0.3,3.83,0.68
			c6.43,1.96,7.74,1.21,10.84-5.04c3.89-7.85,8.1-15.54,12.11-23.33c0.99-1.92,2.54-2.16,4.08-1.29
			c10.55,5.98,22.24,9.21,33.3,13.96c2.95,1.27,3.52,2.76,3.61,5.47c0.23,6.8-1.65,13.24-2.9,19.81c-0.92,4.8-2.03,9.6-1.71,14.57
			c0.1,1.56,0.47,2.62,1.74,3.76c6.29,5.62,8.82,5.32,16.16-3.23c1.72-2.01,3.59-3.67,5.59-5.31c3.14-2.57,6.33-4.92,8.82-8.38
			c3.27-4.55,7.61-4.28,10.89,0.04c5.06,6.68,12.13,11.16,18.09,16.85c2.93,2.79,5.85,5.61,8.74,8.44c0.63,0.62,0.81,1.42,0.43,2.26
			c-3.29,7.34-6.93,14.49-11.05,21.43c-3.32,5.6-5.92,11.64-8.63,17.58c-1.36,2.97,1.62,4.79,2.76,6.91
			c0.83,1.54,2.4-0.83,3.69-1.14c12.25-2.94,22.99-9.9,35.12-13.2c2.41-0.66,3.53-0.55,4.57,1.76
			c4.74,10.57,11.63,20.05,15.65,30.99c0.17,0.46,0.43,0.89,0.66,1.32c3.63,6.71,3.26,7.18-2.42,12.1
			c-4.99,4.32-10.63,8.04-14.23,13.87c-1.7,2.75-4.95,3.7-7.52,5.44c-1.72,1.17-3.79,2.77-3.45,5.06c0.34,2.28,2.96,1.42,4.52,2.07
			c5.82,2.41,11.93,3.47,18.13,4.22c4.41,0.53,6.13,3.4,7.17,7.46c1.96,7.59,0.48,15.35,1.62,22.92c0.94,6.24,2.37,12.4,3.2,18.69
			c1.2,9.07,1.13,18.27,3.13,27.25c3.03,13.58,2.57,27.58,5.36,41.28c2.29,11.26,4.03,22.78,3.95,34.49
			c-0.04,5.27,0.68,10.77,2.61,15.91c1.42,3.79,0.06,5.68-4.13,6.07c-6.47,0.6-12.93,1.65-19.41,1.75
			c-18.92,0.29-37.86,0.73-56.71-1.55c-7.4-0.9-14.77-0.78-22.17-0.25c-1.75-0.06-3.2-1.58-5.07-1.04
			c-4.18-0.86-8.43-1.06-12.64-2.08c-8.76-2.11-17.76-2.67-26.79-2c-2.14-0.69-4.32-0.82-6.54-0.55c-17.1-1.54-34.21-1.17-51.3-0.07
			c-5.41,0.35-10.9,0.52-16.05,3.53c-3.71,2.16-8.34,2.4-12.97,1.28c-4.29-1.04-7.92-3.67-12.48-4.1
			c-19.53-1.82-39.06-2.47-58.62-0.7c-4.05,0.05-8.1,0.1-12.16,0.15c-12.11,0.27-23.91,2.62-35.65,5.37
			C137.79,382.57,136.25,383.74,134.68,383.8z M418.44,108.8l-0.05,0.08c1.32-0.74,0.67-2.08,0.96-3.14l-0.06,0.1
			c1.08-0.36,0.92-1.2,0.8-2.03c0.22-0.24,0.29-0.52,0.22-0.84c2.5-3.8-1.21-3.42-2.95-4.36c-1.49-2.09-2.53-5.11-4.56-6.11
			c-6.73-3.31-9.74-10.4-15.73-14.42c-2.33-1.56-3.36-1.45-5.31,0.38c-8.28,7.77-16.75,15.34-25.18,22.97
			c-0.79,0.71-1.37,2.11-2.89,0.62c-3.91-3.83-7.98-7.51-11.98-11.25c0.42-4.51,0.84-9.01,1.27-13.52
			c1.79-7.14,3.67-14.23,3.93-21.68c0.14-3.84-0.79-5.84-5.04-5.9c-1.85-0.02-3.65-1.36-5.53-1.93c-6.36-1.93-12.07-5.39-18.24-7.69
			c-4.9-1.82-6.05-0.58-8.02,4.14c-2.22,5.33-5.06,10.45-8.03,15.42c-1.39,2.33-3.31,4.16-3.95,7.1c-0.63,2.92-2.49,5.04-6.37,3.45
			c-3.4-1.39-7.05-2.27-10.82-2.15c-1.42,0.04-2.71-0.17-3.15-1.73c-1.11-3.91-2.2-7.82-3.18-11.76
			c-1.75-6.98-0.46-14.28-2.24-21.29c-0.54-2.15-1.09-3.7-3.7-3.65c-9.21,0.19-18.42,0.31-27.63,0.46c-0.23-0.03-0.4,0.05-0.53,0.24
			c-1.81-0.79-3.6-1.17-5.25,0.36c-1.83,5.69-2.87,11.54-3.44,17.48c-1.77,4.84-2,9.9-1.81,14.94c0.14,3.7-1.39,5.12-4.95,4.91
			c-4.15-0.24-8.19,0.48-12.09,1.89c-2.07,0.75-3.63,0.3-4.42-1.72c-3.45-8.82-10.16-15.91-13.24-24.93
			c-1.15-3.37-3.53-4.62-6.95-3.39c-1.86,0.67-3.75,1.34-5.44,2.34c-6.31,3.76-13.27,5.82-20.24,7.77
			c-3.17,0.89-4.78,2.48-3.85,5.55c3.2,10.63,2.61,21.86,5.42,32.54c0.38,1.46,0.94,3.11-0.63,4.03c-3.77,2.2-6.16,5.87-9.48,8.53
			c-2.25,1.8-3.83,2.01-6.18-0.31c-7.72-7.63-15.55-15.16-23.91-22.12c-1.51-1.26-2.31-2.39-4.38-0.47
			c-8.2,7.64-16.61,15.05-24.98,22.5c-1.05,0.94-1.26,1.57-0.41,2.84c7.85,11.76,12.21,25.44,20.27,37.08
			c0.76,1.09,0.93,2.04,0.43,3.2c-3.73,2.61-5.42,6.52-6.78,10.63c-5.35-0.08-10.35-1.96-14.56-4.78
			c-3.74-2.51-7.51-4.74-11.78-5.57c-4.17-0.81-8.05-2.27-11.25-4.71c-2.54-1.94-3.51-1-5.15,0.69c-3.31,3.4-4.01,8.14-6.37,11.96
			c-3.7,6.01-6.3,12.57-9.86,18.63c-1.09,1.86-0.28,2.71,1.22,4.3c6.62,7.01,14.45,12.69,21.13,19.65c3.45,3.6,6.76,8.64,13.54,6.42
			c7.51-2.46,15.32-3.71,23.2-4.62c5.54-0.64,10.99-2.03,16.51-2.85c1.93-0.28,2.94-1.23,3.53-2.84
			c4.12-11.29,11.36-20.89,17.04-31.33c1.48-2.73,3.19-2.01,4.42,0.08c5.47,9.34,13.59,16.73,19.31,25.76
			c4.11,6.5,9.71,8.12,16.33,8.93c3.65,0.34,6.97,2.43,10.75,2.06c2.27,1.92,5.09,0.83,7.64,1.34c12.44,2.5,24.29,6.95,36.37,10.66
			c1.7,0.52,4.02,2.07,5.01,0.67c1.43-2.03-1.48-3.15-2.52-4.64c-1.49-2.14-2.49-4.52-4.2-6.6c-7-8.49-13.35-17.54-20.65-25.75
			c-5.94-6.68-10.11-14.54-15.87-21.34c-6.26-7.39-12-15.27-17.29-23.44c-1.25-1.94-1.64-3.38,0.36-4.46
			c3.54-1.91,6.84-4.86,10.19-6.14c7.41-2.83,14.21-8,22.73-7.63c0.77,0.03,1.74-0.22,2.32-0.7c3.54-2.89,7.82-3.53,12.1-4.21
			c9.02-1.43,18.11-0.54,27.17-0.77c6.95-0.18,13.83,0.18,20.47,2.45c2.75,0.94,5.21,2.56,8.16,3.12
			c12.58,2.39,23.16,9.36,34.32,15.02c2.35,1.19,1.65,1.84,0.9,3.58c-1.6,3.7-4.63,6.28-6.75,9.49
			c-7.47,11.32-16.93,21.11-24.44,32.34c-2.86,4.28-6.68,7.61-9.63,11.73c-3.74,5.23-6.85,11.09-11.36,15.53
			c-3.81,3.75-5.23,8.83-9.63,12.17c1.55,0.7,2.27,0.4,3.07,0.1c6.88-2.59,13.83-5.19,20.85-7.2c11.98-3.43,24.35-5.5,36.73-7.25
			c6.17-0.87,11.94-1.85,16.12-7.74c6.12-8.61,13.37-16.42,19.18-25.29c1.35-2.06,2.26-2.92,3.68-0.33
			c5.31,9.73,12.58,18.37,16.28,28.98c1,2.87,2.9,4.02,5.7,4.37c12.55,1.6,25.11,3.14,37.33,6.69c3.31,0.96,6.39,0.66,9.16-1.94
			c6.76-6.34,13.73-12.44,20.11-19.19c2.52-2.67,7.98-4.45,8.19-6.96c0.27-3.19-3.59-6.63-5.4-10.1
			c-3.79-7.23-7.94-14.27-10.98-21.9c-0.97-2.44-2.45-3.79-5.64-1.73c-3.8,2.46-8.1,4.05-12.72,5.02
			c-4.23,0.89-8.37,2.89-11.76,5.76c-3.37,2.86-8.35,1.26-11.52,4.62c-0.71,0.75-1.47-0.82-2.2-1.41c-2.74-2.25-2.4-6.19-4.69-8.52
			c-1.63-1.66-1.4-2.66-0.44-4.56c4.99-9.88,9.75-19.87,14.58-29.83C417.65,109.45,418.05,109.13,418.44,108.8z M270.82,302.97
			c0.02,0,0.04,0,0.06,0c0,23.58,0.07,47.15-0.07,70.73c-0.02,3.68,0.82,4.39,4.47,3.54c5.59-1.3,11.34-2.06,17.06-2.66
			c31.43-3.28,62.51,2.59,93.78,3.65c12.23,0.42,24.07,3.61,36.25,4.38c18.14,1.14,36.23,1.25,54.38,0.14
			c4.34-0.27,4.56-2.24,4.17-4.95c-3.13-21.49-4.95-43.15-7.96-64.63c-2.74-19.53-3.83-39.29-7.72-58.65
			c-2.47-12.29-3.01-24.8-4.41-37.22c-0.45-4.03-2.25-6.3-6.11-7.08c-3.53-0.72-7.12-1.22-10.59-2.14
			c-8.37-2.22-16.67-5.01-25.05-6.85c-11.48-2.52-23.22-4.04-35.06-5.04c-30.27-2.56-59.79,0.04-88.64,9.52
			c-5.16,1.7-10.35,3.23-15.7,3.91c-4.42,0.56-7.04,4.95-11.57,4.86c-3.58-0.07-3.62,1.12-2.3,4.17c2.68,6.19,5.3,12.29,5.16,19.52
			C270.54,259.76,270.82,281.37,270.82,302.97z M162.78,195.14c-22.12,0.39-42.99,2.47-63.36,8.17c-9.01,2.52-17.97,5.18-27.24,6.65
			c-4.25,0.67-6.54,3.06-6.28,7.8c0.17,3.24-0.04,6.54-0.55,9.83c-1.43,9.25-2.54,18.55-3.66,27.85
			c-2.16,17.95-4.1,35.92-6.41,53.85c-1.81,14.01-4.6,27.86-5.63,42.03c-0.67,9.2-1.57,18.58-4.51,27.52
			c-0.54,1.64-0.34,3.58,1.98,3.59c3.76,0.01,7.25,1.41,11.08,1.37c24.04-0.26,47.89-1.48,71.86-4.49
			c21.65-2.71,43.63-4.04,65.52-5.18c18.97-0.98,37.91-0.98,56.54,3.47c3.12,0.74,3.59-0.49,3.58-3.24
			c-0.06-45.5,0.06-91-0.14-136.49c-0.03-7.18,1.3-13.59,5.5-19.4c1-1.38,1.85-3.63-0.73-3.68c-4.55-0.08-7.72-3.25-11.7-4.29
			c-10.93-2.87-21.68-6.42-32.57-9.31C198.37,196.48,180.08,195.12,162.78,195.14z M264.28,108.97
			c-13.31-1.63-25.83-0.04-37.79,4.34c-3.78,1.39-8.54,0.85-11.27,4.07c-1.85,2.18-4.08,2.89-6.3,3.32
			c-10.62,2.06-8.22,6.82-3.88,12.41c3.29,4.24,6.68,8.41,9.85,12.73c3.74,5.11,7.09,10.51,10.97,15.5
			c6.98,8.99,14.33,17.7,21.33,26.68c3.69,4.74,7.16,9.65,10.47,14.69c5.71,8.69,7.06,8.68,12.51,0.24
			c5.86-9.07,13.74-16.51,19.59-25.59c4.76-7.38,10.21-14.39,15.81-21.11c7.02-8.42,13.13-17.5,20.14-25.89
			c2.06-2.46,1.82-3.93-0.83-5.93c-5.14-3.9-11.26-6.16-16.95-8.36C293.87,110.64,279.28,106.24,264.28,108.97z M258.21,304.63
			c0.01,0,0.02,0,0.03,0c0,21.73,0.08,43.47-0.08,65.2c-0.03,3.68,1,4.79,4.71,4.82c3.93,0.04,4.6-1.52,4.57-4.99
			c-0.15-15.81-0.06-31.61-0.06-47.42c0-27.83,0.01-55.65,0.01-83.48c0-1.54,0.7-3.32-1.61-4.08c-4.75-1.55-7.57,0.33-7.57,5.23
			C258.2,261.49,258.21,283.06,258.21,304.63z M463.39,214.92c1.63,15,4.09,29.85,5.85,44.8c2.26,19.19,4.97,38.37,7.19,57.57
			c2.29,19.71,5.82,39.28,7.13,59.11c0.14,2.09-0.15,4.85,3.13,4.31c2.95-0.49,2.89-2.93,2.47-5.36
			c-1.21-7.13-2.57-14.25-3.45-21.43c-2.78-22.82-5.24-45.69-8.06-68.51c-2.75-22.27-5.91-44.49-8.58-66.76
			C468.56,214.36,466.94,213.69,463.39,214.92z M161.54,190.76c0,0.05,0,0.09,0,0.14c4.29,0,8.57-0.01,12.86,0
			c1.8,0.01,3.35-0.43,1.78-2.47c-5.37-6.97-10.88-13.82-16.37-20.69c-1.37-1.72-3.12-2.34-4.27,0.03
			c-2.98,6.14-7.54,11.38-9.8,17.95c-1.91,5.57-2.16,5.34,2.95,5.08C152.95,190.58,157.25,190.76,161.54,190.76z M383.97,190.93
			c-0.23-0.47-0.42-0.92-0.66-1.34c-3.84-6.99-8.48-13.51-11.7-20.86c-1.1-2.51-3.07-1.89-4.16-0.05
			c-3.91,6.61-10.04,11.46-14.02,18c-0.6,0.98-1.61,1.78-1.04,3.05c0.6,1.34,1.95,1.03,3.05,1.05c3.95,0.08,7.92-0.06,11.86,0.15
			c4.23,0.22,8.66-1.44,12.65,1.72C380.85,193.35,383.64,193.93,383.97,190.93z"/>
		<path class="st2" d="M384.6,382.79c1.87-0.53,3.32,0.99,5.07,1.04c-2.97,6.65-8.26,11.17-13.79,15.62
			c-5.39,4.33-10.12,9.5-15.6,13.7c-4.52,3.46-9.83,5.88-14.6,9.04c-7.7,5.11-16.31,8.46-24.32,12.97
			c-6.16,3.47-13.43,4.4-20.24,5.63c-6.07,1.1-11.68,3.73-17.82,4.31c-10.88,1.04-21.61,2.66-32.72,1.16
			c-15.05-2.04-29.83-5.28-44.02-10.26c-10.31-3.62-20.45-8.44-29.37-15.07c-2.63-1.96-5.75-2.54-8.42-4.68
			c-8.59-6.91-16.35-14.77-25.02-21.56c-1.58-1.24-2.87-2.73-3.01-4.89c2.51-0.42,3.62,0.75,4.48,3.09c0.89,2.42,1.65,2.4,3.6,0.95
			c3.77,3.06,7.52,6.15,11.33,9.16c7.41,5.86,14.82,11.59,23.15,16.3c6.39,3.61,10.46,3.79,17.38,0.22
			c9.79-5.04,20.1-10.26,31.61-11.18c0.85-0.07,1.68-0.4,1.66-1.42c-0.02-0.71-0.6-1.16-1.33-1.19c-4.91-0.17-8.87-3.18-13.33-4.5
			c-10.32-3.06-19.66-7.77-28.13-14.32c1.54-0.41,3.43,0.31,4.55-1.43c9.76,3.83,18.14,10.66,28.63,12.93
			c3.64,0.78,7.16,2.06,10.74,3.11c-2.21-0.1-3.57,1.19-4.81,2.91c2.76,0.33,5.77-0.51,7.73,2.19c-0.72,2.26-1.44,4.52-2.17,6.79
			c-4.33,0.05-8.57,0.73-12.57,2.36c-6.6,2.69-14.33,2.55-19.83,8.08c-1.21,1.22-4.76-0.29-4.57,2.51c0.18,2.75,3.53,2.72,5.51,3.3
			c9.69,2.83,19.07,6.46,29.09,8.5c31.19,6.36,60.97,2.09,90.13-9.48c1.02-0.41,2.46-0.39,2.57-1.89c0.08-1.12-0.88-1.67-1.75-2.19
			c-9.11-5.42-19.46-7.47-29.34-10.8c-1.53-0.52-3.24-0.6-4.82,0.18c-0.56-1.85-1.12-3.7-1.68-5.55c0.07-1.36-0.17-2.94,1.98-2.85
			c-0.23,2.67,1,4.07,3.66,3.83c2.49-0.22,4.79,0.62,7.18,0.94c2.2,1.02,4.31,2.36,6.62,3.01c8.4,2.37,16.51,5.4,23.89,10.1
			c1.7,1.08,2.38,0.33,3.77-0.4c13.28-6.97,24.92-16.18,36.2-25.91C376.75,392.95,381.65,388.73,384.6,382.79z"/>
		<path class="st3" d="M44.6,295.69c0.72,2.1-0.85,4.35,0.5,7.08c3.83-7.58,4.04-15.45,4.54-22.89c1.14-17.12,4.77-33.84,6.8-50.8
			c0.43-3.58,0.63-7.24,0.45-10.84c-0.2-3.78,2.32-4.16,4.76-4.01c3.84,0.23,1.24,2.85,1.15,4.36c-1.07,19.08-4.34,37.92-6.8,56.82
			c-3.32,25.43-6.27,50.92-9.95,76.3c-1.22,8.43-1.43,16.98-3.06,25.38c-0.42,2.16-0.55,3.93-3.34,3.54
			c-2.76-0.39-2.75-2.27-2.3-4.35c4.11-18.82,3.65-38.25,7.67-57.1c1.01-4.72-1.28-9.77,0.9-14.51c0.07-0.15-0.53-0.86-0.84-0.88
			c-2.04-0.1-0.77,2.29-2.04,2.82C42.87,302.88,41.61,298.98,44.6,295.69z"/>
		<path class="st4" d="M148.82,393.85c-1.94,1.46-2.71,1.47-3.6-0.95c-0.86-2.34-1.98-3.51-4.48-3.09
			c-0.29-0.29-0.58-0.58-0.87-0.87c-0.34-0.37-0.68-0.74-1.02-1.11c0,0,0.03,0.03,0.03,0.03c-0.34-0.34-0.67-0.69-1.01-1.03
			c0,0,0.04,0.03,0.04,0.03c-0.36-0.34-0.72-0.68-1.08-1.02c-1.08-0.3-1.68-1.1-2.15-2.04c1.57-0.06,3.11-1.24,4.73-0.15
			C143.57,386.11,146.09,390.07,148.82,393.85z"/>
		<path class="st3" d="M45.44,283.81c0.19,2.67,0.88,5.38-0.58,7.94C43.69,289,42.66,286.26,45.44,283.81z"/>
		<path class="st3" d="M46.52,274.91c0.24,1.71,0.52,3.43-0.26,5.09C44.47,278.2,43.97,276.48,46.52,274.91z"/>
		<path class="st3" d="M53.24,224.43c0.31,1.05,0.53,2.1-0.23,3.07C51.44,226.35,51.33,225.32,53.24,224.43z"/>
		<path class="st3" d="M56.71,211.59c0.06,1.44-0.68,2.42-1.81,3.18C54.78,213.3,54.59,211.79,56.71,211.59z"/>
		<path class="st2" d="M136.83,385.84c0.36,0.34,0.72,0.68,1.08,1.02C137.55,386.52,137.19,386.18,136.83,385.84z"/>
		<path class="st2" d="M137.87,386.83c0.34,0.34,0.67,0.69,1.01,1.03C138.55,387.52,138.21,387.17,137.87,386.83z"/>
		<path class="st2" d="M138.85,387.83c0.34,0.37,0.68,0.74,1.02,1.11C139.53,388.57,139.19,388.2,138.85,387.83z"/>
		<path class="st0" d="M270.82,302.97c0-21.6-0.28-43.2,0.15-64.79c0.14-7.23-2.47-13.32-5.16-19.52c-1.32-3.05-1.28-4.25,2.3-4.17
			c4.53,0.09,7.14-4.3,11.57-4.86c5.34-0.68,10.54-2.21,15.7-3.91c28.85-9.49,58.37-12.08,88.64-9.52c11.85,1,23.58,2.52,35.06,5.04
			c8.38,1.84,16.68,4.63,25.05,6.85c3.47,0.92,7.06,1.43,10.59,2.14c3.86,0.78,5.66,3.05,6.11,7.08c1.4,12.41,1.94,24.92,4.41,37.22
			c3.89,19.37,4.98,39.12,7.72,58.65c3.01,21.48,4.83,43.14,7.96,64.63c0.39,2.71,0.18,4.68-4.17,4.95
			c-18.15,1.11-36.25,1.01-54.38-0.14c-12.18-0.77-24.02-3.96-36.25-4.38c-31.27-1.06-62.35-6.94-93.78-3.65
			c-5.72,0.6-11.47,1.35-17.06,2.66c-3.65,0.85-4.5,0.14-4.47-3.54c0.14-23.58,0.07-47.15,0.07-70.73
			C270.86,302.97,270.84,302.97,270.82,302.97z"/>
		<path class="st0" d="M162.78,195.14c17.3-0.02,35.59,1.35,53.28,6.04c10.89,2.89,21.64,6.44,32.57,9.31
			c3.98,1.05,7.15,4.21,11.7,4.29c2.58,0.05,1.73,2.3,0.73,3.68c-4.2,5.82-5.53,12.22-5.5,19.4c0.2,45.5,0.08,90.99,0.14,136.49
			c0,2.75-0.47,3.98-3.58,3.24c-18.64-4.45-37.57-4.46-56.54-3.47c-21.89,1.14-43.87,2.46-65.52,5.18
			c-23.97,3-47.82,4.22-71.86,4.49c-3.82,0.04-7.32-1.36-11.08-1.37c-2.32-0.01-2.52-1.95-1.98-3.59
			c2.94-8.94,3.84-18.33,4.51-27.52c1.04-14.17,3.83-28.02,5.63-42.03c2.31-17.93,4.25-35.9,6.41-53.85
			c1.12-9.3,2.23-18.6,3.66-27.85c0.51-3.3,0.73-6.59,0.55-9.83c-0.26-4.74,2.03-7.12,6.28-7.8c9.27-1.47,18.23-4.12,27.24-6.65
			C119.79,197.61,140.66,195.53,162.78,195.14z"/>
		<path class="st4" d="M351.72,90.79c4,3.74,8.07,7.42,11.98,11.25c1.52,1.49,2.1,0.1,2.89-0.62c8.42-7.62,16.89-15.19,25.18-22.97
			c1.95-1.83,2.98-1.94,5.31-0.38c5.99,4.02,9,11.11,15.73,14.42c2.03,1,3.07,4.02,4.56,6.11c-1.53,3.15,3.04,2.19,2.95,4.37
			c0.07,0.32,0,0.6-0.22,0.84c-0.78,0.48-0.87,1.22-0.8,2.03c0,0,0.06-0.1,0.06-0.1c-1.41,0.71-1.1,1.95-0.96,3.14
			c0,0,0.05-0.08,0.05-0.08c-0.39,0.32-0.78,0.65-1.18,0.97c-4.84,9.95-9.59,19.95-14.58,29.83c-0.96,1.9-1.19,2.9,0.44,4.56
			c2.29,2.33,1.94,6.27,4.69,8.52c0.72,0.59,1.49,2.16,2.2,1.41c3.17-3.35,8.15-1.76,11.52-4.62c3.39-2.87,7.53-4.87,11.76-5.76
			c4.62-0.97,8.92-2.56,12.72-5.02c3.19-2.06,4.67-0.71,5.64,1.73c3.03,7.62,7.19,14.67,10.98,21.9c1.82,3.47,5.67,6.92,5.4,10.1
			c-0.21,2.51-5.67,4.29-8.19,6.96c-6.38,6.75-13.35,12.85-20.11,19.19c-2.78,2.6-5.86,2.9-9.16,1.94
			c-12.21-3.55-24.77-5.09-37.33-6.69c-2.79-0.36-4.7-1.51-5.7-4.37c-3.69-10.62-10.97-19.26-16.28-28.98
			c-1.41-2.59-2.33-1.74-3.68,0.33c-5.81,8.87-13.07,16.67-19.18,25.29c-4.19,5.9-9.95,6.87-16.12,7.74
			c-12.38,1.75-24.75,3.83-36.73,7.25c-7.01,2-13.96,4.61-20.85,7.2c-0.79,0.3-1.52,0.6-3.07-0.1c4.4-3.34,5.82-8.42,9.63-12.17
			c4.51-4.44,7.62-10.3,11.36-15.53c2.94-4.12,6.77-7.46,9.63-11.73c7.51-11.23,16.97-21.03,24.44-32.34
			c2.12-3.21,5.15-5.8,6.75-9.49c0.75-1.73,1.45-2.39-0.9-3.58c-11.17-5.66-21.75-12.63-34.32-15.02c-2.96-0.56-5.41-2.18-8.16-3.12
			c-6.65-2.26-13.53-2.62-20.47-2.45c-9.06,0.23-18.15-0.66-27.17,0.77c-4.28,0.68-8.57,1.32-12.1,4.21
			c-0.58,0.48-1.55,0.74-2.32,0.7c-8.52-0.37-15.32,4.8-22.73,7.63c-3.35,1.28-6.65,4.23-10.19,6.14c-2.01,1.08-1.62,2.52-0.36,4.46
			c5.29,8.18,11.03,16.05,17.29,23.44c5.75,6.8,9.93,14.66,15.87,21.34c7.3,8.21,13.66,17.26,20.65,25.75
			c1.71,2.07,2.71,4.45,4.2,6.6c1.03,1.49,3.94,2.61,2.52,4.64c-0.98,1.4-3.31-0.15-5.01-0.67c-12.08-3.71-23.93-8.16-36.37-10.66
			c-2.54-0.51-5.37,0.59-7.63-1.34c-3.07-3.39-6.74-3.61-10.76-2.06c-6.62-0.81-12.22-2.44-16.33-8.93
			c-5.72-9.03-13.84-16.42-19.31-25.76c-1.23-2.09-2.94-2.81-4.42-0.08c-5.68,10.44-12.92,20.04-17.04,31.33
			c-0.59,1.61-1.59,2.56-3.53,2.84c-5.52,0.81-10.97,2.21-16.51,2.85c-7.88,0.91-15.68,2.16-23.2,4.62
			c-6.79,2.23-10.09-2.82-13.54-6.42c-6.68-6.96-14.51-12.64-21.13-19.65c-1.5-1.59-2.32-2.44-1.22-4.3
			c3.56-6.06,6.16-12.61,9.86-18.63c2.35-3.82,3.06-8.56,6.37-11.96c1.64-1.69,2.61-2.62,5.15-0.69c3.2,2.44,7.08,3.9,11.25,4.71
			c4.27,0.83,8.04,3.07,11.78,5.57c4.21,2.82,9.21,4.7,14.56,4.78c1.16,0.26,2.57,0.36,2.87-0.94c0.79-3.35,2.79-5.95,4.68-8.65
			c0.08-0.11-0.5-0.68-0.78-1.04c0.49-1.15,0.32-2.11-0.43-3.2c-8.06-11.65-12.42-25.32-20.27-37.08c-0.85-1.27-0.64-1.91,0.41-2.84
			c8.37-7.45,16.78-14.87,24.98-22.5c2.07-1.93,2.87-0.79,4.38,0.47c8.36,6.96,16.19,14.49,23.91,22.12
			c2.35,2.32,3.93,2.12,6.18,0.31c3.32-2.66,5.71-6.33,9.48-8.53c1.57-0.91,1.01-2.56,0.63-4.03c-2.8-10.68-2.22-21.91-5.42-32.54
			c-0.92-3.07,0.68-4.66,3.85-5.55c6.97-1.95,13.93-4.01,20.24-7.77c1.68-1,3.58-1.68,5.44-2.34c3.42-1.23,5.8,0.02,6.95,3.39
			c3.08,9.02,9.79,16.11,13.24,24.93c0.79,2.03,2.35,2.47,4.42,1.72c3.89-1.41,7.93-2.14,12.09-1.89c3.56,0.21,5.09-1.21,4.95-4.91
			c-0.19-5.05,0.04-10.1,1.81-14.94c1.45,0.14,1.95-0.66,2.17-1.98c1.01-5.95,2.18-11.84,7.05-16.11
			c9.21-0.15,18.42-0.26,27.63-0.46c2.61-0.05,3.16,1.5,3.7,3.65c1.78,7.01,0.48,14.31,2.24,21.29c0.99,3.94,2.08,7.85,3.18,11.76
			c0.44,1.56,1.73,1.77,3.15,1.73c3.77-0.12,7.42,0.75,10.82,2.15c3.88,1.59,5.74-0.53,6.37-3.45c0.64-2.94,2.56-4.77,3.95-7.1
			c2.97-4.97,5.81-10.09,8.03-15.42c1.97-4.72,3.12-5.96,8.02-4.14c6.18,2.3,11.89,5.76,18.24,7.69c1.88,0.57,3.68,1.91,5.53,1.93
			c4.24,0.06,5.17,2.06,5.04,5.9c-0.26,7.44-2.15,14.54-3.93,21.68c-0.13-0.11-0.24-0.26-0.38-0.3c-0.13-0.04-0.42,0-0.43,0.05
			C351.02,81.58,349.87,86.14,351.72,90.79z"/>
		<path class="st5" d="M264.28,108.97c15-2.73,29.59,1.67,43.64,7.11c5.69,2.2,11.81,4.46,16.95,8.36c2.65,2.01,2.89,3.47,0.83,5.93
			c-7.02,8.39-13.13,17.46-20.14,25.89c-5.59,6.72-11.05,13.73-15.81,21.11c-5.86,9.08-13.74,16.53-19.59,25.59
			c-5.45,8.44-6.8,8.45-12.51-0.24c-3.31-5.04-6.78-9.95-10.47-14.69c-6.99-8.98-14.34-17.69-21.33-26.68
			c-3.88-5-7.23-10.4-10.97-15.5c-3.17-4.33-6.56-8.5-9.85-12.73c-4.34-5.58-6.74-10.35,3.88-12.41c2.22-0.43,4.46-1.14,6.3-3.32
			c2.73-3.22,7.49-2.69,11.27-4.07C238.45,108.93,250.97,107.34,264.28,108.97z"/>
		<path class="st5" d="M235.08,401.54c-3.58-1.05-7.11-2.32-10.74-3.11c-10.49-2.26-18.87-9.1-28.63-12.93
			c-2.39-2.97-8.2-2.01-8.5-7.38c19.57-1.77,39.09-1.12,58.62,0.7c4.55,0.42,8.19,3.06,12.48,4.1c4.63,1.12,9.25,0.88,12.97-1.28
			c5.16-3,10.64-3.18,16.05-3.53c17.09-1.1,34.2-1.47,51.29,0.07c0.26,1.65-0.39,2.89-1.79,3.68c-7.81,4.42-15.27,9.83-23.58,12.88
			c-6.96,2.56-13.92,5.99-21.7,6.28c-1.63,0.06-4.19-0.33-4.99,2.27c-0.71,0.11-1.41,0.22-2.11,0.33
			c-4.79,0.11-9.56,0.44-14.12,2.12c-5.12-0.85-10.28-1.11-15.46-1c-4.49-0.33-8.98-0.67-13.47-1c-0.29,0.18-0.59,0.18-0.89,0.01
			C239.37,401.35,237.21,401.48,235.08,401.54z"/>
		<path class="st5" d="M148.82,393.85c-2.73-3.77-5.25-7.74-9.41-10.2c11.74-2.76,23.53-5.11,35.64-5.37c2.1,0.65,4.89-0.57,6.3,1.9
			c2.22,3.88,6.47,4.63,9.82,6.75c8.47,6.55,17.8,11.26,28.13,14.32c4.46,1.32,8.41,4.33,13.33,4.5c0.74,0.03,1.32,0.48,1.33,1.19
			c0.02,1.02-0.82,1.35-1.66,1.42c-11.51,0.92-21.83,6.13-31.61,11.18c-6.92,3.57-11,3.39-17.38-0.22
			c-8.33-4.71-15.74-10.44-23.15-16.3C156.34,400,152.59,396.9,148.82,393.85z"/>
		<path class="st5" d="M384.6,382.79c-2.94,5.94-7.85,10.16-12.73,14.38c-11.28,9.73-22.92,18.94-36.2,25.91
			c-1.39,0.73-2.07,1.48-3.77,0.4c-7.38-4.7-15.49-7.73-23.89-10.1c-2.31-0.65-4.42-1.99-6.62-3.01c0-2.25-2.37-3.05-3.03-4.9
			c5.28-3.65,11.52-5.04,17.43-7.12c8.76-3.07,15.67-9.25,23.75-13.43c2.69-1.39,5.3-2.73,5.63-6.2c9.03-0.68,18.04-0.11,26.79,2
			C376.17,381.73,380.42,381.93,384.6,382.79z"/>
		<path class="st3" d="M258.21,304.63c0-21.57,0-43.14,0-64.71c0-4.9,2.81-6.78,7.57-5.23c2.31,0.76,1.61,2.53,1.61,4.08
			c0,27.83,0,55.65-0.01,83.48c0,15.81-0.09,31.62,0.06,47.42c0.03,3.47-0.64,5.03-4.57,4.99c-3.71-0.04-4.74-1.14-4.71-4.82
			c0.16-21.73,0.08-43.47,0.08-65.2C258.22,304.63,258.21,304.63,258.21,304.63z"/>
		<path class="st3" d="M463.39,214.92c3.55-1.23,5.17-0.56,5.68,3.73c2.67,22.28,5.83,44.49,8.58,66.76
			c2.82,22.82,5.28,45.68,8.06,68.51c0.87,7.18,2.24,14.29,3.45,21.43c0.41,2.43,0.48,4.87-2.47,5.36
			c-3.28,0.54-2.99-2.21-3.13-4.31c-1.31-19.83-4.84-39.39-7.13-59.11c-2.23-19.2-4.93-38.38-7.19-57.57
			C467.48,244.77,465.02,229.92,463.39,214.92z"/>
		<path class="st3" d="M161.54,190.76c-4.29,0-8.58-0.17-12.86,0.04c-5.11,0.26-4.86,0.49-2.95-5.08c2.26-6.57,6.82-11.81,9.8-17.95
			c1.15-2.37,2.89-1.75,4.27-0.03c5.49,6.87,11.01,13.72,16.37,20.69c1.57,2.04,0.02,2.48-1.78,2.47c-4.29-0.01-8.57,0-12.86,0
			C161.54,190.85,161.54,190.8,161.54,190.76z"/>
		<path class="st3" d="M383.97,190.93c-0.33,3-3.12,2.42-4.02,1.71c-3.99-3.16-8.42-1.5-12.65-1.72c-3.95-0.2-7.91-0.07-11.86-0.15
			c-1.1-0.02-2.44,0.29-3.05-1.05c-0.57-1.27,0.44-2.07,1.04-3.05c3.98-6.54,10.12-11.38,14.02-18c1.09-1.84,3.06-2.46,4.16,0.05
			c3.22,7.35,7.87,13.87,11.7,20.86C383.54,190.02,383.74,190.46,383.97,190.93z"/>
		<path class="st2" d="M345.17,378.72c-0.33,3.47-2.94,4.81-5.63,6.2c-8.08,4.18-14.99,10.36-23.75,13.43
			c-5.92,2.07-12.15,3.47-17.43,7.12c-0.32,0.06-0.64,0.04-0.95-0.06c-0.27-2.02-1.81-1.85-3.25-1.89
			c-2.54-0.07-5.07-0.16-7.61-0.24c0.8-2.59,3.36-2.21,4.99-2.27c7.78-0.29,14.75-3.72,21.7-6.28c8.32-3.06,15.77-8.47,23.58-12.88
			c1.4-0.79,2.06-2.04,1.79-3.68C340.85,377.9,343.03,378.02,345.17,378.72z"/>
		<path class="st4" d="M191.16,386.93c-3.35-2.13-7.6-2.87-9.82-6.75c-1.41-2.47-4.2-1.25-6.3-1.9c4.06-0.05,8.11-0.11,12.16-0.16
			c0.3,5.37,6.11,4.41,8.5,7.39C194.59,387.24,192.7,386.52,191.16,386.93z"/>
		<path class="st2" d="M251.03,30.06c-4.87,4.26-6.05,10.16-7.05,16.11c-0.22,1.32-0.72,2.11-2.17,1.98
			c0.57-5.94,1.61-11.79,3.44-17.48c1.75-0.12,3.5-0.24,5.25-0.36C250.63,30.12,250.8,30.04,251.03,30.06z"/>
		<path class="st2" d="M124.97,143.34c0.27,0.36,0.85,0.93,0.78,1.04c-1.89,2.71-3.89,5.31-4.68,8.65c-0.31,1.3-1.72,1.2-2.87,0.94
			C119.56,149.85,121.24,145.95,124.97,143.34z"/>
		<path class="st2" d="M195.46,193.68c4.01-1.55,7.69-1.33,10.76,2.06C202.43,196.12,199.12,194.02,195.46,193.68z"/>
		<path class="st2" d="M351.72,90.79c-1.85-4.65-0.7-9.21,0.45-13.77c0.01-0.06,0.3-0.1,0.43-0.05c0.15,0.05,0.26,0.2,0.38,0.3
			C352.56,81.78,352.14,86.28,351.72,90.79z"/>
		<path class="st2" d="M420.3,102.97c0.09-2.18-4.48-1.22-2.95-4.37C419.1,99.55,422.81,99.17,420.3,102.97z"/>
		<path class="st4" d="M250.5,30.31c-1.75,0.12-3.5,0.24-5.25,0.36C246.9,29.14,248.68,29.51,250.5,30.31z"/>
		<path class="st2" d="M418.39,108.88c-0.14-1.19-0.45-2.43,0.96-3.14C419.06,106.8,419.71,108.14,418.39,108.88z"/>
		<path class="st2" d="M419.29,105.84c-0.08-0.81,0.01-1.56,0.8-2.03C420.21,104.64,420.37,105.48,419.29,105.84z"/>
		<path class="st2" d="M417.26,109.78c0.39-0.32,0.78-0.65,1.18-0.97C418.05,109.13,417.65,109.45,417.26,109.78z"/>
		<path class="st5" d="M290.24,414.01c1.58-0.78,3.29-0.69,4.82-0.18c9.88,3.33,20.23,5.38,29.34,10.8
			c0.87,0.51,1.83,1.06,1.75,2.19c-0.1,1.5-1.54,1.49-2.57,1.89c-29.15,11.57-58.94,15.83-90.13,9.48
			c-10.03-2.04-19.4-5.67-29.09-8.5c-1.97-0.58-5.32-0.54-5.51-3.3c-0.19-2.8,3.36-1.29,4.57-2.51c5.5-5.53,13.23-5.39,19.83-8.08
			c3.99-1.63,8.24-2.31,12.57-2.36c-0.08,2.49-1.05,4.73-1.92,7.01c-1.04,2.72-2.1,5.43-2.94,8.21c-0.33,1.09-0.09,2.4,1.48,2.55
			c1.14,0.11,2.8,0.02,2.74-1.34c-0.35-7.01,4.77-4.3,8.14-4.8c2.34-0.35,3.66,0.07,3.57,2.92c-0.13,4.03,2.14,3.72,4.78,2.21
			c0.71,0.03,1.42,0.06,2.14,0.09c2.06,1.61,4.46,0.71,6.67,0.74c10.43,0.11,15.81-7.47,12.7-17.68l0.15-0.31
			c0,0-0.29-0.19-0.29-0.19c-0.08-0.75-0.16-1.5-0.24-2.25c2.6-0.02,5.21-0.04,7.81-0.06c-1.42,5.68-4.51,10.82-5.49,16.65
			c-0.23,1.33-1.85,2.93,0.18,3.77c1.7,0.71,3.17-0.19,3.52-2.29c0.38-2.34,1.34-4.11,4.17-3.59c2.86,0.52,6.96-1.6,7.6,3.71
			c0.2,1.61,1.47,2.66,3.24,2.2c2.36-0.61,1.23-2.29,0.82-3.57C293.22,422.94,291.71,418.48,290.24,414.01z"/>
		<path class="st1" d="M251.67,430.2c-2.64,1.51-4.9,1.82-4.78-2.21c0.09-2.85-1.23-3.27-3.57-2.92c-3.37,0.5-8.49-2.21-8.14,4.8
			c0.07,1.36-1.6,1.45-2.74,1.34c-1.56-0.15-1.81-1.46-1.48-2.55c0.85-2.78,1.9-5.5,2.94-8.21c0.87-2.28,1.84-4.52,1.92-7.01
			c0.72-2.26,1.44-4.53,2.17-6.79c1.17-0.68,1.99-1.66,2.51-2.9c0.3,0.17,0.6,0.17,0.89-0.01c3.31,2.29,4.57,5.71,5.26,9.44
			c0.41,1.72,0.61,3.54,1.29,5.14C249.58,422.16,251.59,425.87,251.67,430.2z M238.33,420.17c2.02,0.5,3.91,0.52,5.97-0.19
			c-0.56-2.46-1.45-4.58-3.47-6.8C239.86,415.87,239.11,417.97,238.33,420.17z"/>
		<path class="st1" d="M290.24,414.01c1.47,4.47,2.98,8.93,4.4,13.42c0.41,1.28,1.54,2.96-0.82,3.57c-1.77,0.46-3.04-0.6-3.24-2.2
			c-0.65-5.3-4.74-3.19-7.6-3.71c-2.84-0.51-3.79,1.25-4.17,3.59c-0.34,2.1-1.81,2.99-3.52,2.29c-2.02-0.84-0.4-2.45-0.18-3.77
			c0.99-5.84,4.07-10.97,5.49-16.65c1.3-2.13,1.64-4.84,3.92-6.37c2.97-0.1,2.69,2.85,4.04,4.28
			C289.12,410.3,289.68,412.15,290.24,414.01z M281.76,420.5c2.66-0.53,5.04,1.53,5.78-1.4c0.53-2.11-0.85-5.36-2.54-5.13
			C282.08,414.35,284.21,418.17,281.76,420.5z"/>
		<path class="st3" d="M297.41,405.41c0.31,0.1,0.63,0.12,0.95,0.06c0.66,1.85,3.02,2.65,3.03,4.9c-2.39-0.32-4.69-1.16-7.18-0.94
			c-2.67,0.24-3.9-1.16-3.66-3.83c0,0-0.03,0.01-0.03,0.01c0.32,0.01,0.63-0.04,0.93-0.14
			C293.43,405.45,295.42,405.43,297.41,405.41z"/>
		<path class="st4" d="M240.51,403.74c-0.52,1.24-1.34,2.23-2.51,2.9c-1.96-2.7-4.97-1.86-7.73-2.19c1.24-1.72,2.61-3.01,4.81-2.91
			C237.21,401.48,239.37,401.35,240.51,403.74z"/>
		<path class="st4" d="M297.41,405.41c-1.99,0.02-3.98,0.04-5.96,0.06c-0.4-0.55-0.71-0.46-0.93,0.14c0,0,0.03-0.01,0.03-0.01
			c-2.15-0.08-1.91,1.49-1.98,2.85c-1.35-1.43-1.07-4.38-4.04-4.28c-0.02-0.19-0.05-0.38-0.08-0.57c0.7-0.11,1.4-0.22,2.11-0.33
			c2.54,0.08,5.08,0.17,7.61,0.24C295.6,403.56,297.14,403.39,297.41,405.41z"/>
		<path class="st1" d="M272.8,410.6c0.08,0.75,0.16,1.5,0.24,2.24c0,0-0.13,0.3-0.13,0.3l0.28,0.2c3.11,10.21-2.28,17.79-12.7,17.68
			c-2.21-0.02-4.6,0.87-6.67-0.74c0.14-6.89,0.6-13.78-0.06-20.67c0.69-1.56-0.7-3.59,1.12-4.89c5.18-0.11,10.34,0.15,15.46,1
			C272.43,406.71,271.22,409.36,272.8,410.6z M269.68,417.58c0.6-1.73-0.79-3.2-1.23-4.91c-1.07-4.14-4.35-4.48-7.75-4.12
			c-3.95,0.42-2.23,3.67-2.49,5.77c-0.28,2.25-0.24,4.59-0.03,6.85c0.18,1.89-1.36,4.78,1.71,5.36c2.86,0.54,6.14,0.3,8.08-2.28
			C269.28,422.51,270.08,420.21,269.68,417.58z"/>
		<path class="st2" d="M272.8,410.6c-1.58-1.24-0.37-3.9-2.47-4.88c4.56-1.68,9.32-2.01,14.12-2.12c0.03,0.19,0.06,0.38,0.08,0.57
			c-2.28,1.52-2.62,4.24-3.92,6.37C278,410.56,275.4,410.58,272.8,410.6z"/>
		<path class="st4" d="M254.87,404.72c-1.82,1.3-0.43,3.33-1.12,4.89c-2.61,0.69-6.48-1.12-7.09,3.55
			c-0.69-3.74-1.95-7.16-5.26-9.44C245.89,404.06,250.38,404.39,254.87,404.72z"/>
		<path class="st3" d="M246.66,413.17c0.61-4.67,4.47-2.87,7.09-3.55c0.66,6.89,0.19,13.78,0.06,20.68
			c-0.71-0.03-1.42-0.06-2.14-0.09c-0.08-4.33-2.08-8.04-3.72-11.89C247.27,416.71,247.07,414.89,246.66,413.17z"/>
		<path class="st2" d="M273.17,413.35l-0.28-0.2c0,0,0.13-0.31,0.13-0.3c0,0,0.29,0.2,0.29,0.2L273.17,413.35z"/>
		<path class="st3" d="M238.33,420.17c0.78-2.2,1.53-4.3,2.5-6.99c2.02,2.23,2.91,4.34,3.47,6.8
			C242.24,420.69,240.35,420.67,238.33,420.17z"/>
		<path class="st3" d="M281.76,420.5c2.46-2.32,0.32-6.14,3.25-6.54c1.69-0.23,3.07,3.03,2.54,5.13
			C286.8,422.03,284.42,419.96,281.76,420.5z"/>
		<path class="st2" d="M290.51,405.61c0.23-0.6,0.53-0.69,0.93-0.14C291.14,405.57,290.83,405.62,290.51,405.61z"/>
		<path class="st3" d="M269.68,417.58c0.4,2.63-0.4,4.93-1.71,6.67c-1.94,2.58-5.22,2.82-8.08,2.28c-3.07-0.58-1.53-3.47-1.71-5.36
			c-0.21-2.27-0.25-4.6,0.03-6.85c0.26-2.1-1.46-5.36,2.49-5.77c3.41-0.36,6.68-0.02,7.75,4.12
			C268.89,414.38,270.28,415.85,269.68,417.58z"/>
	</g>
</g>
<text transform="matrix(0.9062 0 0 1 68.2451 274.8896)"><tspan x="0" y="0" class="st6 st7 st8">TEHNIČKA</tspan><tspan x="32.72" y="56.93" class="st6 st7 st8">ŠKOLA</tspan></text>
<text transform="matrix(0.9062 0 0 1 294.4414 275.3281)"><tspan x="0" y="0" class="st6 st7 st8">MŰSZAKI</tspan><tspan x="18.68" y="56.93" class="st6 st7 st8">ISKOLA</tspan></text>
</svg>
