<svg xmlns="http://www.w3.org/2000/svg" width="1390" height="702" viewBox="0 0 1390 702">
    <g fill="none" fill-rule="evenodd">
        <g stroke="#F0F5FD" stroke-width="4">
            <g>
                <g>
                    <path d="M411.947 306.677c-3.173-42.434 4.191-90.878 43.008-106.975 9.766-4.05 39.05-1.3 49.408.723 7.375 1.442 14.14 5.055 20.732 8.704 19.507 10.799 38.629 22.285 57.367 34.46 36.811 23.93 76.852 51.708 120.11 45.197 18.752-2.82 35.885-11.986 53.54-18.994 48.11-19.1 104.507-21.786 150.241 2.595 45.734 24.38 76.799 79.23 65.303 130.34-2.926 13.012-8.327 25.298-13.837 37.414-9.635 21.19-20.14 42.77-37.396 58.192-15.67 14.01-35.863 21.892-56.317 26.18-24.194 5.069-50.116 5.287-72.83-4.563-27.06-11.753-46.505-36.215-70.943-52.879-28.033-19.096-62.976-27.497-96.47-23.154-28.336 3.666-54.994 15.955-83.197 20.56-28.202 4.603-61.14-.751-77.581-24.456-11.02-15.885-12.3-36.585-11.591-55.999.79-21.68-7.495-20.623-20.764-33.187-11.733-11.122-17.581-28.202-18.783-44.158z" transform="translate(-25 -55) translate(27 57.72) translate(0 .28)"/>
                    <path d="M386.615 301.143c-3.401-45.282 7.567-96.251 49.961-113.354 10.665-4.3 39.777-2.025 51.08.152 8.049 1.55 15.425 5.42 22.615 9.326 21.28 11.559 42.133 23.852 62.558 36.878 40.143 25.604 83.817 55.322 131.026 48.455 20.47-2.98 39.188-12.721 58.466-20.167 52.541-20.29 114.102-23.05 163.979 3.05 49.877 26.101 83.718 84.695 71.069 139.204-3.214 13.88-9.128 26.978-15.155 39.9-10.548 22.59-22.048 45.595-40.907 62.021-17.125 14.92-39.18 23.29-61.511 27.824-26.416 5.367-54.71 5.564-79.482-5.005-29.52-12.59-50.702-38.741-77.35-56.541C692.397 452.459 654.27 443.439 617.71 448c-30.938 3.874-60.035 16.905-90.827 21.78-30.793 4.874-66.731-.916-84.638-26.239-11.983-16.972-13.368-39.061-12.565-59.774.899-23.135-8.145-22.023-22.609-35.455-12.828-11.897-19.176-30.134-20.455-47.17z" transform="translate(-25 -55) translate(27 57.72) translate(0 .28)"/>
                    <path d="M360.593 295.15c-3.626-48.224 10.923-101.81 56.911-119.954 11.564-4.562 40.5-2.757 52.747-.42 8.72 1.664 16.708 5.8 24.499 9.97 23.048 12.339 45.63 25.46 67.746 39.364 43.47 27.346 90.762 59.039 141.937 51.801 22.198-3.137 42.49-13.477 63.395-21.377 56.968-21.505 123.675-24.36 177.711 3.525 54.037 27.886 90.593 90.305 76.834 148.332-3.502 14.772-9.933 28.707-16.487 42.456-11.465 24.036-23.96 48.516-44.42 65.973-18.58 15.864-42.497 24.738-66.704 29.532-28.635 5.669-59.3 5.835-86.135-5.457-31.972-13.456-54.893-41.32-83.75-60.33-33.1-21.804-74.41-31.463-114.042-26.668-33.53 4.057-65.086 17.922-98.46 23.045-33.375 5.122-72.324-1.083-91.696-28.076-12.984-18.089-14.446-41.6-13.534-63.664 1.004-24.632-8.809-23.461-24.46-37.785-13.876-12.705-20.729-32.137-22.092-50.268z" transform="translate(-25 -55) translate(27 57.72) translate(0 .28)"/>
                    <path d="M334.587 290.385c-3.85-51.067 14.327-107.168 63.92-126.313 12.476-4.818 41.256-3.483 54.473-.993 9.4 1.761 18.012 6.163 26.407 10.59 24.839 13.1 49.176 27.025 73.01 41.777 46.842 28.996 97.803 62.644 152.981 55.05 23.933-3.292 45.84-14.214 68.387-22.54 61.459-22.705 133.41-25.621 191.632 3.966 58.22 29.588 97.602 95.747 82.693 157.169-3.794 15.637-10.741 30.386-17.829 44.935-12.39 25.436-25.896 51.336-47.977 69.794-20.057 16.768-45.84 26.132-71.963 31.176-30.886 5.966-63.955 6.1-92.88-5.896-34.462-14.292-59.149-43.83-90.243-64-35.667-23.132-80.2-33.42-122.944-28.397-36.165 4.25-70.21 18.888-106.206 24.266-35.995 5.378-77.989-1.247-98.846-29.859-13.982-19.173-15.516-44.083-14.521-67.433 1.114-26.063-9.461-24.855-26.33-40.044-14.948-13.461-22.318-34.047-23.764-53.248z" transform="translate(-25 -55) translate(27 57.72) translate(0 .28)"/>
                    <path d="M308.593 285.158c-4.071-53.999 17.7-112.71 70.853-132.894 13.374-5.076 41.994-4.23 56.14-1.565 10.074 1.889 19.296 6.538 28.285 11.229 26.609 13.88 52.681 28.633 78.216 44.26 50.165 30.716 104.743 66.356 163.893 58.394 25.652-3.45 49.132-14.972 73.32-23.755 65.883-23.935 142.993-26.927 205.351 4.427 62.358 31.354 104.475 101.357 88.436 166.282-4.085 16.53-11.544 32.115-19.155 47.489-13.3 26.878-27.802 54.245-51.483 73.736-21.503 17.703-49.167 27.575-77.149 32.876-33.103 6.267-68.54 6.369-99.522-6.344-36.917-15.155-63.338-46.414-96.638-67.772-38.198-24.506-85.909-35.436-131.72-30.177-38.775 4.448-75.252 19.882-113.834 25.524-38.581 5.643-83.568-1.41-105.895-31.688-14.96-20.29-16.568-46.63-15.486-71.315 1.22-27.576-10.113-26.293-28.175-42.371-16.032-14.26-23.89-36.031-25.437-56.336z" transform="translate(-25 -55) translate(27 57.72) translate(0 .28)"/>
                    <path d="M283.328 279.22c-4.296-56.928 21.072-118.255 77.812-139.473 14.273-5.34 42.717-4.938 57.797-2.138 10.746 2 20.578 6.91 30.168 11.865 28.37 14.66 56.164 30.243 83.383 46.747 53.494 32.448 111.686 70.066 174.802 61.722 27.37-3.612 52.43-15.734 78.238-24.968 70.312-25.161 152.582-28.233 219.08 4.892 66.5 33.125 111.366 106.97 94.2 175.396-4.37 17.424-12.335 33.86-20.476 50.045-14.217 28.321-29.713 57.161-54.996 77.681-22.964 18.64-52.48 29.02-82.34 34.565-35.323 6.574-73.131 6.64-106.175-6.8-39.369-16.016-67.531-49-103.038-71.556-40.73-25.874-91.63-37.45-140.5-31.958-41.354 4.649-80.307 20.884-121.473 26.805-41.167 5.922-89.164-1.58-112.949-33.506-15.94-21.405-17.645-49.176-16.458-75.202 1.325-29.07-10.763-27.729-30.02-44.7-17.06-15.047-25.44-38.007-27.055-59.416z" transform="translate(-25 -55) translate(27 57.72) translate(0 .28)"/>
                    <path d="M258.068 273.787c-4.517-59.753 24.444-123.589 84.753-145.81 15.17-5.59 43.442-5.672 59.476-2.705 11.416 2.114 21.845 7.275 32.062 12.486 30.134 15.415 59.656 31.798 88.566 49.148 56.82 34.097 118.626 73.634 185.699 64.97 29.085-3.766 55.728-16.463 83.15-26.13 74.736-26.343 162.16-29.49 232.795 5.344 70.635 34.833 118.26 112.389 99.956 184.198-4.658 18.282-13.146 35.513-21.799 52.495-15.129 29.714-31.618 59.968-58.504 81.487-24.417 19.54-55.788 30.405-87.523 36.211-37.54 6.864-77.713 6.899-112.816-7.24-41.835-16.823-71.73-51.484-109.43-75.195-43.259-27.198-97.331-39.396-149.275-33.677-43.946 4.84-85.352 21.843-129.101 28.002-43.749 6.158-94.738-1.762-119.993-35.299-16.912-22.481-18.709-51.632-17.426-78.95 1.43-30.511-11.42-29.116-31.865-46.95-18.12-15.805-27.024-39.914-28.725-62.385z" transform="translate(-25 -55) translate(27 57.72) translate(0 .28)"/>
                    <path d="M232.09 269.315c-4.742-62.686 27.828-129.114 91.692-152.367 16.07-5.848 44.174-6.401 61.149-3.278 12.086 2.224 23.147 7.648 33.926 13.122 31.905 16.198 63.158 33.406 93.757 51.625 60.141 35.812 125.563 77.348 196.6 68.304 30.804-3.923 59.024-17.223 88.064-27.335 79.16-27.568 171.74-30.79 246.518 5.802 74.778 36.59 125.161 117.965 105.727 193.28-4.95 19.17-13.946 37.236-23.122 55.053-16.046 31.153-33.528 62.873-62.015 85.417-25.87 20.472-59.099 31.843-92.711 37.903-39.76 7.17-82.302 7.17-119.466-7.692-44.275-17.705-75.911-54.074-115.83-78.973-45.793-28.551-103.039-41.402-158.05-35.45-46.541 5.038-90.401 22.835-136.734 29.257-46.332 6.422-100.323-1.91-127.045-37.11-17.906-23.616-19.776-54.183-18.399-82.833 1.54-32.001-12.068-30.55-33.708-49.27-19.177-16.594-28.571-41.888-30.354-65.455z" transform="translate(-25 -55) translate(27 57.72) translate(0 .28)"/>
                    <path d="M206.114 263.901c-4.97-65.496 31.203-134.44 98.71-158.692 16.98-6.102 44.93-7.127 62.863-3.849 12.77 2.332 24.45 8.011 35.834 13.734 33.693 16.951 66.698 34.96 99.016 54.024 63.516 37.47 132.605 80.934 207.66 71.535 32.542-4.077 62.367-17.958 93.049-28.501 83.648-28.745 181.458-32.044 260.433 6.257 78.975 38.302 132.14 123.391 111.56 202.072-5.228 20.04-14.744 38.91-24.45 57.524-16.971 32.544-35.461 65.68-65.557 89.22-27.344 21.378-62.46 33.234-97.983 39.54-42.013 7.462-86.958 7.43-126.208-8.13-46.764-18.54-80.162-56.57-122.32-82.624-48.357-29.886-108.831-43.351-166.955-37.172-49.17 5.23-95.515 23.794-144.471 30.47-48.957 6.677-105.998-2.074-134.195-38.893-18.898-24.674-20.858-56.63-19.385-86.568 1.646-33.452-12.73-31.935-35.598-51.517-20.227-17.353-30.135-43.795-32.003-68.43z" transform="translate(-25 -55) translate(27 57.72) translate(0 .28)"/>
                    <path d="M180.14 258.736c-5.19-68.438 34.575-139.969 105.65-165.253 17.88-6.363 45.658-7.85 64.535-4.421 13.44 2.445 25.723 8.388 37.704 14.377 35.463 17.723 70.196 36.557 104.198 56.502 66.84 39.186 139.542 84.636 218.56 74.866 34.261-4.227 65.662-18.703 97.982-29.702 88.073-29.97 191.038-33.345 274.15 6.719 83.112 40.063 139.027 128.983 117.317 211.157-5.529 20.92-15.56 40.627-25.79 60.063-17.884 33.983-37.352 68.582-69.066 93.148-28.8 22.31-65.768 34.67-103.156 41.219-44.227 7.75-91.54 7.7-132.846-8.579-49.22-19.401-84.353-59.15-128.717-86.394-50.887-31.252-114.523-45.358-175.727-38.943-51.768 5.429-100.57 24.788-152.105 31.724-51.535 6.937-111.57-2.24-141.24-40.718-19.881-25.789-21.921-59.169-20.353-90.442 1.762-34.927-13.39-33.366-37.423-53.835-21.305-18.13-31.72-45.757-33.673-71.488z" transform="translate(-25 -55) translate(27 57.72) translate(0 .28)"/>
                    <path d="M154.89 253.565c-5.416-71.354 37.943-145.473 112.585-171.791 18.778-6.622 46.388-8.588 66.212-4.994 14.092 2.559 27.015 8.761 39.592 15.013 37.22 18.509 73.679 38.166 109.377 58.973 70.165 40.897 146.48 88.325 229.455 78.193 35.978-4.391 68.96-19.46 102.901-30.903 92.498-31.189 200.617-34.642 287.868 7.179 87.252 41.82 145.918 134.579 123.074 220.215-5.816 21.808-16.36 42.346-27.11 62.603-18.799 35.417-39.278 71.476-72.574 97.069-30.253 23.259-69.08 36.104-108.34 42.923-46.445 8.067-96.127 7.968-139.496-9.032-51.669-20.253-88.54-61.718-135.108-90.15-53.417-32.613-120.249-47.361-184.502-40.711-54.357 5.638-105.61 25.775-159.731 32.978-54.121 7.204-117.152-2.41-148.285-42.543-20.864-26.9-22.988-61.7-21.322-94.302 1.86-36.415-14.036-34.797-39.268-56.153-22.37-18.929-33.292-47.738-35.329-74.567z" transform="translate(-25 -55) translate(27 57.72) translate(0 .28)"/>
                    <path d="M129.64 247.684C124 173.414 170.947 96.696 249.175 69.35c19.676-6.882 47.112-9.321 67.873-5.57 14.794 2.672 28.299 9.134 41.473 15.652 38.98 19.284 77.17 39.764 114.569 61.443 73.487 42.61 153.417 92.01 240.35 81.522 37.689-4.55 72.254-20.214 107.82-32.108 96.918-32.408 210.194-35.94 301.586 7.64 91.391 43.579 152.8 140.144 128.827 229.285-6.1 22.696-17.157 44.066-28.433 65.147-19.725 36.854-41.183 74.384-76.083 100.99-31.701 24.173-72.392 37.54-113.526 44.612-48.662 8.37-100.709 8.239-146.137-9.48-54.139-21.112-92.748-64.29-141.522-93.903-55.946-33.977-125.953-49.354-193.273-42.483-56.953 5.824-110.66 26.771-167.362 34.234-56.704 7.463-122.734-2.573-155.337-44.37-21.84-28.004-24.055-64.23-22.294-98.165 1.973-37.91-14.677-36.233-41.102-58.478-23.42-19.717-34.847-49.71-36.964-77.634z" transform="translate(-25 -55) translate(27 57.72) translate(0 .28)"/>
                    <path d="M103.67 243.013c-5.861-77.094 44.677-156.305 126.464-184.65 20.575-7.13 47.84-10.039 69.545-6.136 15.454 2.782 29.584 9.51 43.354 16.268 40.752 20.036 80.666 41.315 119.742 63.837 76.81 44.27 160.359 95.596 251.25 84.748 39.423-4.705 75.564-20.942 112.75-33.27 101.344-33.586 219.762-37.192 315.305 8.102 95.544 45.293 159.694 145.549 134.59 238.062-6.392 23.552-17.961 45.73-29.76 67.603-20.623 38.242-43.089 77.175-79.592 104.784-33.158 25.078-75.698 38.926-118.71 46.249-50.88 8.66-105.302 8.498-152.78-9.922-56.578-21.942-96.924-66.782-147.916-97.561-58.462-35.295-131.663-51.306-202.05-44.198-59.547 6.015-115.703 27.725-174.989 35.442-59.286 7.717-128.32-2.736-162.38-46.139-22.825-29.081-25.121-66.683-23.262-101.907 2.07-39.338-15.337-37.605-42.966-60.71-24.46-20.477-36.405-51.615-38.596-80.602z" transform="translate(-25 -55) translate(27 57.72) translate(0 .28)"/>
                    <path d="M78.422 237.856C72.333 157.848 126.494 76.042 211.9 46.666c21.493-7.397 48.598-10.77 71.26-6.693 16.134 2.896 30.882 9.865 45.261 16.91 42.541 20.815 84.21 42.919 125.009 66.312 80.184 45.976 167.394 99.283 262.303 88.076 41.152-4.862 78.894-21.698 117.732-34.47 105.828-34.807 229.49-38.492 329.215 8.551 99.725 47.043 166.68 151.14 140.427 247.118-6.694 24.44-18.772 47.448-31.097 70.14-21.553 39.677-45.025 80.069-83.151 108.704-34.631 26.007-79.057 40.36-123.966 47.935-53.132 8.963-109.95 8.769-159.523-10.369-59.062-22.797-101.17-69.35-154.386-101.308-61.042-36.661-137.453-53.311-210.947-45.97-62.176 6.212-120.823 28.717-182.728 36.697-61.905 7.98-133.982-2.907-169.526-47.96-23.821-30.192-26.2-69.217-24.248-105.765 2.181-40.825-16-39.036-44.824-63.028-25.555-21.286-38.003-53.603-40.29-83.69z" transform="translate(-25 -55) translate(27 57.72) translate(0 .28)"/>
                    <path d="M51.732 231.272c-6.316-82.927 51.461-167.324 140.496-197.731 22.396-7.651 49.347-11.503 72.962-7.28 16.824 3.005 32.188 10.24 47.172 17.553 44.334 21.594 87.757 44.522 130.268 68.785 83.554 47.668 174.443 102.962 273.354 91.382 42.896-5.022 82.24-22.456 122.721-35.675 110.325-36.025 239.203-39.788 343.123 9.014 103.92 48.803 173.665 156.707 146.277 256.187-6.975 25.328-19.587 49.17-32.427 72.686-22.478 41.113-46.957 82.967-86.71 112.626-36.107 26.939-82.411 41.797-129.223 49.627-55.381 9.266-114.597 9.036-166.259-10.819-61.549-23.658-105.418-71.928-160.873-105.073-63.607-38.026-143.238-55.33-219.842-47.742-64.81 6.41-125.942 29.709-190.466 37.952-64.524 8.243-139.644-3.073-176.671-49.783-24.818-31.305-27.282-71.752-25.23-109.634 2.263-42.31-16.686-40.464-46.72-65.352-26.62-22.037-39.58-55.54-41.952-86.723z" transform="translate(-25 -55) translate(27 57.72) translate(0 .28)"/>
                    <path d="M26.485 225.898C19.947 140.148 81.32 53.249 173.92 21.847c23.294-7.899 50.081-12.223 74.64-7.846 17.488 3.113 33.48 10.603 49.046 18.156 46.096 22.344 91.247 46.069 135.454 71.176 86.877 49.343 181.367 106.554 284.25 94.624 44.612-5.177 85.538-23.185 127.641-36.837 114.739-37.205 248.783-41.04 356.844 9.462 108.06 50.502 180.552 162.11 152.024 264.963-7.263 26.188-20.383 50.837-33.761 75.144-23.393 42.502-48.866 85.768-90.218 116.42-37.56 27.84-85.725 43.182-134.41 51.264-57.596 9.557-119.184 9.292-172.902-11.268-64.005-24.487-109.6-74.416-167.27-108.713-66.137-39.343-148.948-57.26-228.618-49.456-67.403 6.598-130.985 30.666-198.095 39.16-67.11 8.493-145.223-3.233-183.717-51.552-25.8-32.396-28.348-74.2-26.202-113.385 2.396-43.749-17.31-41.847-48.538-67.584-27.679-22.787-41.144-57.436-43.604-89.677z" transform="translate(-25 -55) translate(27 57.72) translate(0 .28)"/>
                    <path d="M.517 221.466C-6.242 132.795 58.719 43.33 154.887 10.88c24.193-8.157 50.81-12.95 76.314-8.407 18.157 3.226 34.75 10.975 50.926 18.79 47.86 23.125 94.738 47.674 140.636 73.646 90.204 51.072 188.307 110.245 295.149 97.945 46.331-5.332 88.832-23.933 132.56-38.04 119.163-38.423 258.362-42.34 370.56 9.922 112.197 52.263 187.453 167.685 157.781 274.027-7.55 27.071-21.183 52.55-35.084 77.678-24.313 43.936-50.771 88.664-93.727 120.34-39.013 28.772-89.033 44.615-139.597 52.948-59.812 9.862-123.768 9.566-179.547-11.708-66.454-25.36-113.81-76.984-173.662-112.47-68.667-40.706-154.657-59.26-237.39-51.223-69.996 6.798-136.034 31.654-205.727 40.413-69.693 8.76-150.809-3.402-190.766-53.375-26.78-33.485-29.408-76.73-27.167-117.229 2.502-45.235-17.97-43.277-50.387-69.898C17.032 290.635 3.057 254.803.517 221.466z" transform="translate(-25 -55) translate(27 57.72) translate(0 .28)"/>
                </g>
            </g>
        </g>
    </g>
</svg>
